<svg width="30" height="39" viewBox="0 0 30 39" fill="none" xmlns="http://www.w3.org/2000/svg">
<path fill-rule="evenodd" clip-rule="evenodd" d="M12.063 4.08646C12.6104 -0.104346 17.3896 -0.104334 17.937 4.08646L19.2905 14.4465L27.5072 16.1529C30.831 16.8432 30.8309 22.869 27.5072 23.5593L19.2905 25.2657L17.937 35.6257C17.3896 39.8165 12.6104 39.8165 12.063 35.6257L10.7095 25.2657L2.49284 23.5593C-0.830953 22.869 -0.830942 16.8432 2.49284 16.1529L10.7095 14.4465L12.063 4.08646ZM16.958 4.28978C16.593 1.49591 13.407 1.49592 13.042 4.28978L11.5729 15.535L2.6541 17.3873C0.43824 17.8475 0.438243 21.8647 2.6541 22.3249L11.5729 24.1771L13.042 35.4224C13.407 38.2163 16.593 38.2163 16.958 35.4224L18.4271 24.1771L27.3459 22.3249C29.5618 21.8647 29.5618 17.8475 27.3459 17.3873L18.4271 15.535L16.958 4.28978Z" fill="#6D588E"/>
</svg>
