<svg width="82" height="120" viewBox="0 0 82 120" fill="none" xmlns="http://www.w3.org/2000/svg">
<path fill-rule="evenodd" clip-rule="evenodd" d="M19.9932 57.5074L3.24613 60L19.2512 62.3822C2.67071 90.9684 -4.58179 115.49 3.01386 119.453C9.38687 122.777 24.4043 110.686 40.3594 90.6007L41 94.1151L42.028 88.4753C42.4189 87.9715 42.8102 87.4632 43.2018 86.9504C49.8763 91.5303 56.2979 93.221 60.7439 90.9015C67.4886 87.3828 67.6618 75.6923 62.0069 62.4926L78.7539 60L62.7488 57.6178C79.3293 29.0317 86.5818 4.51016 78.9861 0.547485C72.6131 -2.77734 57.5957 9.31419 41.6406 29.3993L41 25.885L39.972 31.5247C39.5811 32.0284 39.1898 32.5368 38.7982 33.0496C32.1238 28.4697 25.7022 26.779 21.2561 29.0985C14.5114 32.6172 14.3382 44.3077 19.9932 57.5074ZM24.0281 106.872C29.0402 102.044 34.4886 95.9377 40.0431 88.8657L39.1225 83.8153C34.3606 79.7633 29.6475 74.3693 25.5999 68.0343C24.501 66.3145 23.4931 64.5909 22.5778 62.8773L20.6784 62.5946C13.3068 75.2586 7.77805 87.1146 4.56429 96.7173C2.53669 102.776 1.45367 107.87 1.37721 111.676C1.33897 113.579 1.55448 115.095 1.98127 116.225C2.40423 117.345 3.00419 118.015 3.7003 118.378C4.3964 118.741 5.33844 118.876 6.62353 118.647C7.92022 118.416 9.4806 117.826 11.2855 116.845C14.8946 114.882 19.2355 111.488 24.0281 106.872ZM24.2406 63.1248C25.0247 64.5503 25.8743 65.9827 26.7888 67.414C30.4053 73.0742 34.5464 77.9489 38.747 81.7555L35.6608 64.8246L24.2406 63.1248ZM42.8982 85.1574C42.8203 85.1003 42.7423 85.0427 42.6643 84.9848L46.3392 64.8246L57.9135 63.1019C57.0344 64.5326 56.1334 65.9707 55.2112 67.414C51.1684 73.7416 47.0197 79.6981 42.8982 85.1574ZM43.9796 85.9263C44.2784 86.132 44.5765 86.3316 44.8738 86.525C51.1567 90.6131 56.5637 91.6498 60.0575 89.8271C63.5513 88.0044 65.2612 83.2547 64.4847 76.2939C64.0303 72.2212 62.734 67.5722 60.6224 62.6987L59.6395 62.845C58.591 64.5651 57.5108 66.2961 56.4001 68.0343C52.3255 74.4116 48.1406 80.4187 43.9796 85.9263ZM59.4223 57.1227L61.3216 57.4054C68.6932 44.7414 74.222 32.8854 77.4357 23.2827C79.4633 17.2243 80.5463 12.1299 80.6228 8.32436C80.661 6.42113 80.4455 4.90545 80.0187 3.77512C79.5958 2.65491 78.9958 1.98499 78.2997 1.62183C77.6036 1.25867 76.6616 1.12413 75.3765 1.35324C74.0798 1.58442 72.5194 2.17361 70.7145 3.15515C67.1054 5.11777 62.7645 8.51247 57.9719 13.1284C52.9598 17.9558 47.5114 24.0623 41.9569 31.1343L42.8775 36.1847C47.6394 40.2366 52.3525 45.6307 56.4001 51.9657C57.499 53.6855 58.5069 55.4091 59.4223 57.1227ZM43.253 38.2445C47.4536 42.0511 51.5947 46.9258 55.2112 52.586C56.1257 54.0173 56.9753 55.4498 57.7594 56.8752L46.3392 55.1754L43.253 38.2445ZM39.1018 34.8425C39.1798 34.8997 39.2577 34.9572 39.3357 35.0152L35.6608 55.1754L24.0865 56.8981C24.9656 55.4674 25.8666 54.0294 26.7888 52.586C30.8317 46.2585 34.9803 40.3019 39.1018 34.8425ZM38.0204 34.0737C33.8595 39.5813 29.6745 45.5884 25.5999 51.9657C24.4892 53.704 23.409 55.4349 22.3605 57.155L21.3776 57.3013C19.266 52.4278 17.9697 47.7788 17.5153 43.7061C16.7388 36.7453 18.4487 31.9956 21.9425 30.1729C25.4363 28.3501 30.8433 29.3869 37.1263 33.475C37.4235 33.6684 37.7216 33.868 38.0204 34.0737Z" fill="#6D588E"/>
</svg>
