<svg width="28" height="16" viewBox="0 0 28 16" fill="none" xmlns="http://www.w3.org/2000/svg">
<path d="M1.32532 6.75C0.773033 6.75 0.325317 7.19772 0.325317 7.75C0.325317 8.30228 0.773033 8.75 1.32532 8.75V6.75ZM27.0324 8.45711C27.4229 8.06658 27.4229 7.43342 27.0324 7.04289L20.6685 0.678932C20.2779 0.288408 19.6448 0.288408 19.2542 0.678932C18.8637 1.06946 18.8637 1.70262 19.2542 2.09315L24.9111 7.75L19.2542 13.4069C18.8637 13.7974 18.8637 14.4305 19.2542 14.8211C19.6448 15.2116 20.2779 15.2116 20.6685 14.8211L27.0324 8.45711ZM1.32532 8.75L26.3253 8.75V6.75L1.32532 6.75V8.75Z" fill="#6D588E"/>
</svg>
