<svg width="64" height="69" viewBox="0 0 64 69" fill="none" xmlns="http://www.w3.org/2000/svg">
<path d="M14.9666 45.0997L15.2262 43.7068L14.9666 45.0997L20.803 46.1876L21.8475 53.3632C22.6441 58.8355 26.9808 62.5 32 62.5C37.0192 62.5 41.3559 58.8355 42.1525 53.3632L43.197 46.1876L49.0334 45.0997C55.1632 43.9572 57.5 38.4646 57.5 34.5C57.5 30.5354 55.1632 25.0428 49.0334 23.9003L43.197 22.8124L42.1525 15.6368L40.905 15.8184L42.1525 15.6368C41.3559 10.1645 37.0192 6.50001 32 6.5C26.9808 6.49999 22.6441 10.1645 21.8475 15.6368L20.803 22.8124L14.9666 23.9003C8.83684 25.0428 6.5 30.5354 6.5 34.5C6.5 38.4646 8.83683 43.9572 14.9666 45.0997Z" fill="#D4C2EB" stroke="#D4C2EB" stroke-width="13"/>
<path fill-rule="evenodd" clip-rule="evenodd" d="M28.2797 16.5731C28.9732 11.809 35.0268 11.809 35.7203 16.5731L37.4346 28.3503L47.8424 30.2902C52.0525 31.075 52.0525 37.925 47.8424 38.7098L37.4346 40.6497L35.7203 52.4269C35.0268 57.191 28.9732 57.191 28.2797 52.4269L26.5654 40.6497L16.1576 38.7098C11.9475 37.925 11.9475 31.075 16.1576 30.2902L26.5654 28.3503L28.2797 16.5731ZM34.4802 16.8042C34.0179 13.6281 29.9821 13.6281 29.5198 16.8042L27.659 29.5878L16.3619 31.6935C13.5551 32.2166 13.5551 36.7834 16.3619 37.3065L27.659 39.4122L29.5198 52.1958C29.9821 55.3719 34.0179 55.3719 34.4802 52.1958L36.341 39.4122L47.6381 37.3065C50.4449 36.7834 50.4449 32.2166 47.6381 31.6935L36.341 29.5878L34.4802 16.8042Z" fill="black"/>
</svg>
